<svg xmlns="http://www.w3.org/2000/svg" viewBox="0 0 16 16"><defs><style>.cls-1{isolation:isolate;}.cls-2{fill:none;}.cls-3{fill:#9c9ea2;}.cls-4{fill:#fffce8;}.cls-5{fill:#b3b3a9;opacity:0.3;}.cls-5,.cls-7,.cls-9{mix-blend-mode:multiply;}.cls-6,.cls-7{fill:#cecece;}.cls-8{fill:#f7b01e;}.cls-10{fill:#fff;opacity:0.5;mix-blend-mode:screen;}.cls-11{opacity:0.6;}</style></defs><title>beerIcon</title><g class="cls-1"><g id="Layer_1" data-name="Layer 1"><rect class="cls-2" width="16" height="16"/><path class="cls-3" d="M33.07,25.91a1.83,1.83,0,0,0-2.43-1.06l.26-.75s.82-.43.76-1-.55-1.62-2.48-1.79-2.64.28-3.39.13a3.08,3.08,0,0,0-2.72.4s-.77.9-.5,1.65.46.23.62.95a21.22,21.22,0,0,1,.71,5.27c0,2.92-.67,2.56,0,3.44,0,0-.17.84,1.31,1.27s4.31-.05,4.59-.59c0,0,.39-.3.32-.6a2.61,2.61,0,0,0,.18-.94c0-.42-.12-.52,0-.54a3.93,3.93,0,0,0,2.58-2A4.38,4.38,0,0,0,33.07,25.91Zm-.87,2.53a3.32,3.32,0,0,1-1.75,2.06c-.55.34-.35-.33-.37-.92s.06-2.59.12-3,.25-.46.25-.46a1.22,1.22,0,0,1,1.52,0A2.43,2.43,0,0,1,32.2,28.44Z" transform="translate(-19.97 -19.97)"/><path class="cls-4" d="M31.11,22.31a2.44,2.44,0,0,0-2-.78l-.14,0a8.46,8.46,0,0,0-1.88.07,7.7,7.7,0,0,1-1.36.07h0a3,3,0,0,0-2.46.29,1.34,1.34,0,0,0-.61,1,1.64,1.64,0,0,0,0,.38c0,.69.84.77,1.37.78.21,0,.42,0,.62,0,.52,0,1-.06,1.54,0,.7.05.84.55,1,1.14l.06.2c.12.22.24.48.48.52a.53.53,0,0,0,.48-.19l0,0a1,1,0,0,0,.15-.24l.23-.48a.26.26,0,0,1,.07-.11.86.86,0,0,1,.31-.19h.25a.79.79,0,0,0,.35-.09,1.15,1.15,0,0,0,.27-.21,1.64,1.64,0,0,1,.69-.33L30.7,24a1,1,0,0,0,.25-.09,1,1,0,0,0,.51-.52A.91.91,0,0,0,31.11,22.31Z" transform="translate(-19.97 -19.97)"/><path class="cls-5" d="M31.11,22.31a1.76,1.76,0,0,0-.93-.63l.12.09c.39.3.79,1,.35,1.45a.73.73,0,0,1-.52.21,3.49,3.49,0,0,0-.46,0,1,1,0,0,0-.38.19,2.35,2.35,0,0,1-1.18.63A1.31,1.31,0,0,1,27,23.73a2.45,2.45,0,0,0-.54-.48,1.33,1.33,0,0,0-.9-.08c-.72.15-1.58.56-2.3.15a.79.79,0,0,1-.36-1,1.22,1.22,0,0,0-.22.61,1.64,1.64,0,0,0,0,.38c0,.69.84.77,1.37.78.21,0,.42,0,.62,0,.52,0,1-.06,1.54,0,.7.05.84.55,1,1.14l.06.2c.12.22.24.48.48.52a.53.53,0,0,0,.48-.19l0,0a1,1,0,0,0,.15-.24l.23-.48a.26.26,0,0,1,.07-.11.86.86,0,0,1,.31-.19h.25a.79.79,0,0,0,.35-.09,1.15,1.15,0,0,0,.27-.21,1.64,1.64,0,0,1,.69-.33L30.7,24a1,1,0,0,0,.25-.09,1,1,0,0,0,.51-.52A.91.91,0,0,0,31.11,22.31Z" transform="translate(-19.97 -19.97)"/><path class="cls-6" d="M33.2,28.28a3.85,3.85,0,0,1-3.05,3.41,2.12,2.12,0,0,1-.11-1,3.22,3.22,0,0,0,2.38-3c0-.59,0-1.38-.57-1.71a1.4,1.4,0,0,0-1.6.14c.05-.29.11-.57.18-.85a1.39,1.39,0,0,1,1.25-.36C32,24.94,33.66,25.74,33.2,28.28Z" transform="translate(-19.97 -19.97)"/><path class="cls-7" d="M31.71,30.62c-.16-.32.09-.67.23-.95a5,5,0,0,0,.57-1.27,3.66,3.66,0,0,0,.06-1.4,1.83,1.83,0,0,0-.43-1,1.64,1.64,0,0,0-.84-.37c-.28-.06-.53-.08-.58-.41a.37.37,0,0,1,0-.18.92.92,0,0,0-.31.23c-.07.28-.13.56-.18.85a1.4,1.4,0,0,1,1.6-.14c.6.33.61,1.12.57,1.71a3.22,3.22,0,0,1-2.38,3,2.12,2.12,0,0,0,.11,1,3.74,3.74,0,0,0,1.77-.87A.32.32,0,0,1,31.71,30.62Z" transform="translate(-19.97 -19.97)"/><path class="cls-6" d="M28,34.4a3.92,3.92,0,0,0,1.52-.48,5.31,5.31,0,0,1-2.54.35c-.89,0-2.23-.05-2.87-.77,0,0,0,0,0,0,.34.84,1.49.83,2.25.92A10,10,0,0,0,28,34.4Z" transform="translate(-19.97 -19.97)"/><path class="cls-8" d="M30.16,26.17a12.13,12.13,0,0,1,.59-2.06,2,2,0,0,0-.73.23h0l-.12.12a1,1,0,0,1-.32.25c-.31.07-.64,0-.81.34-.07.13-.14.27-.22.39a1.21,1.21,0,0,1-.51.48.41.41,0,0,1-.42.08.5.5,0,0,1-.24-.32,1.48,1.48,0,0,1-.26-.57,1.77,1.77,0,0,0-.53-.82A3.46,3.46,0,0,0,25,24.22a4.69,4.69,0,0,1-1.68-.12l-.11.06a1,1,0,0,1,.07.21A14.78,14.78,0,0,1,24,28.74a18.42,18.42,0,0,1-.23,3.57A1.49,1.49,0,0,0,24,33a3.14,3.14,0,0,0,.31.32,5.23,5.23,0,0,0,2.55.61,6.51,6.51,0,0,0,3-.59,1.23,1.23,0,0,0,.4-1A7.65,7.65,0,0,1,30,30.56,30.1,30.1,0,0,1,30.16,26.17Z" transform="translate(-19.97 -19.97)"/><g class="cls-9"><path class="cls-8" d="M29.94,30l-.06.51a6.46,6.46,0,0,1-.31,1.5,2.52,2.52,0,0,1-2.29,1.27,6.48,6.48,0,0,1-1.46-.08,2.66,2.66,0,0,1-1.17-.47A1.71,1.71,0,0,1,24,31.63c0-.34,0-.69,0-1-.05.57-.12,1.14-.2,1.71A1.49,1.49,0,0,0,24,33a3.14,3.14,0,0,0,.31.32,5.23,5.23,0,0,0,2.55.61,6.51,6.51,0,0,0,3-.59,1.23,1.23,0,0,0,.4-1A7.65,7.65,0,0,1,30,30.56C30,30.41,29.94,30.23,29.94,30Z" transform="translate(-19.97 -19.97)"/></g><g class="cls-9"><path class="cls-8" d="M30.16,26.17a12.13,12.13,0,0,1,.59-2.06,2,2,0,0,0-.73.23h0l-.12.12a1,1,0,0,1-.32.25c-.31.07-.64,0-.81.34-.07.13-.14.27-.22.39a1.21,1.21,0,0,1-.51.48.41.41,0,0,1-.42.08.5.5,0,0,1-.24-.32,1.48,1.48,0,0,1-.26-.57,1.77,1.77,0,0,0-.53-.82,1.65,1.65,0,0,0-.63-.13l0,0a1.72,1.72,0,0,1,.44.93,4.44,4.44,0,0,0,.37,1.29.8.8,0,0,0,.49.43,1.08,1.08,0,0,0,.68-.16c.33-.15.55.08.59.4a4.71,4.71,0,0,1,0,.65c0,.27,0,.54,0,.82a18.65,18.65,0,0,0,.09,3.88,1.71,1.71,0,0,1-.13,1.35.05.05,0,0,1,0,0,3.14,3.14,0,0,0,1.34-.46,1.23,1.23,0,0,0,.4-1A7.65,7.65,0,0,1,30,30.56,30.1,30.1,0,0,1,30.16,26.17Z" transform="translate(-19.97 -19.97)"/></g><path class="cls-4" d="M30.52,25.73s1.94-.84,2.08,1.55A3.49,3.49,0,0,1,32,29.51a3,3,0,0,0,.76-2.8C32.36,25.07,31.07,25.49,30.52,25.73Z" transform="translate(-19.97 -19.97)"/><path class="cls-10" d="M24.79,32.05c0-1,.09-2,.12-2.94s0-1.86,0-2.79a7.71,7.71,0,0,0-.32-2.08,4.91,4.91,0,0,1-.86,0c.08.21.15.42.22.64a7.89,7.89,0,0,1,.28,1.28c.12.9.13,1.81.16,2.71a18.43,18.43,0,0,1-.13,2.78,3.18,3.18,0,0,0,.16,1.84,3,3,0,0,0,.71.28A3,3,0,0,1,24.79,32.05Z" transform="translate(-19.97 -19.97)"/><g class="cls-11"><path class="cls-4" d="M25.34,32.26c0-.08-.12-.07-.19,0a.34.34,0,0,0-.14.21.28.28,0,0,0,0,.22.14.14,0,0,0,.11.06c.05,0,.12,0,.17,0A.33.33,0,0,0,25.34,32.26Z" transform="translate(-19.97 -19.97)"/><path class="cls-4" d="M26.48,32.25l0-.06a.08.08,0,0,0-.12,0,.24.24,0,0,0-.13.21c0,.07,0,.13.12.12h0l0,0s.09,0,.1,0a.22.22,0,0,0,0-.13A.2.2,0,0,0,26.48,32.25Z" transform="translate(-19.97 -19.97)"/><path class="cls-4" d="M27.54,31.86a.12.12,0,0,0,0-.1c0-.08-.12,0-.15,0s-.13.15-.07.21l0,0a.08.08,0,0,0,.08,0l0,0A.13.13,0,0,0,27.54,31.86Z" transform="translate(-19.97 -19.97)"/><path class="cls-4" d="M29.44,31.9a.3.3,0,0,0-.19.27.31.31,0,0,0,0,.08c0,.12.09.24.21.18a.45.45,0,0,0,.23-.36A.18.18,0,0,0,29.44,31.9Z" transform="translate(-19.97 -19.97)"/><path class="cls-4" d="M27.28,30.78a.13.13,0,0,0-.12-.12c-.1,0-.19.13-.21.21a.15.15,0,0,0,.08.19h.06s.09,0,.11-.06A.34.34,0,0,0,27.28,30.78Z" transform="translate(-19.97 -19.97)"/><path class="cls-4" d="M28.7,30.87h-.1l-.06.07a.47.47,0,0,0,0,.09.07.07,0,0,0,0,.07s.05,0,.07,0a.23.23,0,0,0,.07-.1.12.12,0,0,0,0-.08S28.71,30.87,28.7,30.87Z" transform="translate(-19.97 -19.97)"/><path class="cls-4" d="M25.31,30.68h0c-.05,0-.09,0-.13,0A.43.43,0,0,0,25,31a.14.14,0,0,0,.15.12.33.33,0,0,0,.27-.2A.19.19,0,0,0,25.31,30.68Z" transform="translate(-19.97 -19.97)"/></g></g></g></svg>